# File created by Blade
# Date/Time:  Wed Jan 21 19:19:27 2015
#---------------------------------------------------------
:version 1.10
:name HOM
:units
  mass 1.0
  length 1.000000
  angle deg
:documentation
     Acclaim Skeleton File
:root
   axis xyz
   order TX TY TZ RX RY RZ
   position 0.000000 0.000000 0.000000
   orientation 0 0 0
:bonedata
   begin
      id 1
      name RightUpLeg_dum
      direction -1.000000 0.000000 0.000000
      length 3.693983
      axis 0.0 0.0 0.0 xyz
   end
   begin
      id 2
      name LeftUpLeg_dum
      direction 1.000000 0.000000 0.000000
      length 3.693983
      axis 0.0 0.0 0.0 xyz
   end
   begin
      id 3
      name Spine_dum
      direction 0.000000 1.000000 0.000000
      length 2.392956
      axis 0.0 0.0 0.0 xyz
   end
   begin
      id 4
      name RightUpLeg
      direction 0.000000 -1.000000 0.000000
      length 15.795667
      axis 0.0 0.0 0.0 xyz
      dof rx ry rz
   end
   begin
      id 5
      name RightLeg
      direction 0.000000 -1.000000 0.000000
      length 14.766989
      axis 0.0 0.0 0.0 xyz
      dof rx ry rz
   end
   begin
      id 6
      name RightFoot
      direction 0.000000 -0.258819 0.965926
      length 4.962790
      axis 15.0 0.0 0.0 xyz
      dof rx ry rz
   end
   begin
      id 7
      name RightToeBase
      direction 0.000000 0.000000 1.000000
      length 2.952750
      axis 0.0 0.0 0.0 xyz
      dof rx ry rz
   end
   begin
      id 8
      name LeftUpLeg
      direction 0.000000 -1.000000 0.000000
      length 15.795667
      axis 0.0 0.0 0.0 xyz
      dof rx ry rz
   end
   begin
      id 9
      name LeftLeg
      direction 0.000000 -1.000000 0.000000
      length 14.766989
      axis 0.0 0.0 0.0 xyz
      dof rx ry rz
   end
   begin
      id 10
      name LeftFoot
      direction 0.000000 -0.258819 0.965926
      length 4.962790
      axis 15.0 0.0 0.0 xyz
      dof rx ry rz
   end
   begin
      id 11
      name LeftToeBase
      direction 0.000000 0.000000 1.000000
      length 2.952750
      axis 0.0 0.0 0.0 xyz
      dof rx ry rz
   end
   begin
      id 12
      name Spine
      direction 0.000000 1.000000 0.000000
      length 0.000000
      axis 0.0 0.0 0.0 xyz
      dof rx ry rz
   end
   begin
      id 13
      name Spine_dum1
      direction 0.000000 1.000000 0.000000
      length 13.207411
      axis 0.0 0.0 0.0 xyz
   end
   begin
      id 14
      name Spine_dum2
      direction 0.000000 1.000000 0.000000
      length 13.207411
      axis 0.0 0.0 0.0 xyz
   end
   begin
      id 15
      name Spine_dum3
      direction 0.000000 1.000000 0.000000
      length 19.250100
      axis 0.0 0.0 0.0 xyz
   end
   begin
      id 16
      name RightShoulder
      direction -1.000000 0.000000 0.000000
      length 8.140465
      axis 0.0 0.0 90.0 xyz
      dof rx ry rz
   end
   begin
      id 17
      name RightArm
      direction -1.000000 0.000000 0.000000
      length 10.649840
      axis 0.0 0.0 90.0 xyz
      dof rx ry rz
   end
   begin
      id 18
      name RightForeArm
      direction -1.000000 0.000000 0.000000
      length 8.304624
      axis 0.0 0.0 90.0 xyz
      dof ry rz rx
   end
   begin
      id 19
      name RightHand
      direction -1.000000 0.000000 0.000000
      length 0.000000
      axis 0.0 0.0 90.0 xyz
      dof rx ry rz
   end
   begin
      id 20
      name RightHand_dum1
      direction -1.000000 0.000000 0.000000
      length 3.937000
      axis 0.0 0.0 90.0 xyz
   end
   begin
      id 21
      name RightHand_dum2
      direction 0.000000 0.000000 0.000000
      length 0.000000
      axis 0.0 0.0 90.0 xyz
   end
   begin
      id 22
      name RightHandThumb1
      direction 0.000000 0.000000 1.000000
      length 3.937000
      axis 0.0 0.0 90.0 xyz
      dof rx rz ry
   end
   begin
      id 23
      name LeftShoulder
      direction 1.000000 0.000000 0.000000
      length 8.140465
      axis 0.0 0.0 -90.0 xyz
      dof rx ry rz
   end
   begin
      id 24
      name LeftArm
      direction 1.000000 0.000000 0.000000
      length 10.649840
      axis 0.0 0.0 -90.0 xyz
      dof rx ry rz
   end
   begin
      id 25
      name LeftForeArm
      direction 1.000000 0.000000 0.000000
      length 8.304624
      axis 0.0 0.0 -90.0 xyz
      dof ry rz rx
   end
   begin
      id 26
      name LeftHand
      direction 1.000000 0.000000 0.000000
      length 0.000000
      axis 0.0 0.0 -90.0 xyz
      dof rx ry rz
   end
   begin
      id 27
      name LeftHand_dum1
      direction 1.000000 0.000000 0.000000
      length 3.937000
      axis 0.0 0.0 -90.0 xyz
   end
   begin
      id 28
      name LeftHand_dum2
      direction 0.000000 0.000000 0.000000
      length 0.000000
      axis 0.0 0.0 -90.0 xyz
   end
   begin
      id 29
      name LeftHandThumb1
      direction 0.000000 0.000000 1.000000
      length 3.937000
      axis 0.0 0.0 -90.0 xyz
      dof rx rz ry
   end
   begin
      id 30
      name Head
      direction 0.000000 1.000000 0.000000
      length 4.527550
      axis 0.0 0.0 0.0 xyz
      dof rx ry rz
   end
:hierarchy
   begin
      root RightUpLeg_dum LeftUpLeg_dum Spine_dum
      RightUpLeg_dum RightUpLeg
      LeftUpLeg_dum LeftUpLeg
      Spine_dum Spine
      RightUpLeg RightLeg
      RightLeg RightFoot
      RightFoot RightToeBase
      LeftUpLeg LeftLeg
      LeftLeg LeftFoot
      LeftFoot LeftToeBase
      Spine Spine_dum1 Spine_dum2 Spine_dum3
      Spine_dum1 RightShoulder
      Spine_dum2 LeftShoulder
      Spine_dum3 Head
      RightShoulder RightArm
      RightArm RightForeArm
      RightForeArm RightHand
      RightHand RightHand_dum1 RightHand_dum2
      RightHand_dum2 RightHandThumb1
      LeftShoulder LeftArm
      LeftArm LeftForeArm
      LeftForeArm LeftHand
      LeftHand LeftHand_dum1 LeftHand_dum2
      LeftHand_dum2 LeftHandThumb1
   end

# File created by Blade
# Date/Time:  Wed Jan 21 19:19:18 2015
# Frame Rate: 120.000 fps
#------------------------------------------------------
:FULLY-SPECIFIED
:DEGREES
530
root -1.374726 14.685424 -2.191555 43.504413 -18.223535 22.112676
RightUpLeg -167.369288 -60.504655 28.431959
RightLeg 106.577579 -0.000000 -0.000000
RightFoot -14.953359 21.474449 18.433883
RightToeBase 21.586670 -0.000000 -0.000000
LeftUpLeg -28.418619 26.152899 26.743279
LeftLeg 14.880683 -0.000000 -0.000000
LeftFoot -27.614826 5.505391 -18.633683
LeftToeBase 6.003377 -0.000000 -0.000000
Spine -36.511637 13.292440 31.692174
RightShoulder -15.552449 19.734703 -18.599907
RightArm -9.082787 -14.241821 53.208657
RightForeArm -19.065524 -0.000000 34.238604
RightHand 38.437015 0.000000 -67.860926
RightHandThumb1 -24.326973 -0.000000 -32.862282
LeftShoulder -21.153305 -24.538294 71.836525
LeftArm 74.512707 -43.659894 -16.762831
LeftForeArm 10.242952 -0.000000 12.607533
LeftHand -18.503561 0.000000 13.192988
LeftHandThumb1 -26.253704 0.000000 33.147579
Head -53.913044 7.858267 47.745550
531
root -1.375252 14.690338 -2.208345 43.566506 -18.320801 22.062404
RightUpLeg -167.511968 -60.286897 28.572899
RightLeg 106.542275 -0.000000 -0.000000
RightFoot -14.885236 21.496925 18.358214
RightToeBase 21.510498 -0.000000 -0.000000
LeftUpLeg -28.413092 26.065052 26.796163
LeftLeg 14.926923 -0.000000 -0.000000
LeftFoot -27.668216 5.714552 -18.665735
LeftToeBase 5.996664 -0.000000 -0.000000
Spine -36.475828 13.265084 31.689248
RightShoulder -15.424129 19.879179 -18.569175
RightArm -9.017278 -14.482497 53.275390
RightForeArm -18.865151 -0.000000 33.877337
RightHand 38.509818 -0.000000 -68.100372
RightHandThumb1 -24.326973 -0.000000 -32.862282
LeftShoulder -21.145089 -24.539843 71.849438
LeftArm 74.483708 -43.609067 -16.807670
LeftForeArm 10.202938 -0.000000 12.630120
LeftHand -18.614065 -0.000000 13.080223
LeftHandThumb1 -26.253704 0.000000 33.147579
Head -53.878892 7.881815 47.787478
532
root -1.379050 14.692061 -2.220641 43.610523 -18.425160 22.003038
RightUpLeg -167.620030 -60.079028 28.683309
RightLeg 106.529202 -0.000000 -0.000000
RightFoot -14.809988 21.565785 18.349110
RightToeBase 21.490203 -0.000000 -0.000000
LeftUpLeg -28.379683 26.154092 26.792968
LeftLeg 14.918618 -0.000000 -0.000000
LeftFoot -27.635720 5.771819 -18.632705
LeftToeBase 5.918970 -0.000000 -0.000000
Spine -36.431406 13.271357 31.669021
RightShoulder -15.343706 20.022956 -18.566665
RightArm -8.986775 -14.709846 53.361585
RightForeArm -18.683828 0.000000 33.534625
RightHand 38.593620 -0.000000 -68.357202
RightHandThumb1 -24.326973 -0.000000 -32.862282
LeftShoulder -21.156549 -24.489716 71.868724
LeftArm 74.503213 -43.616157 -16.985112
LeftForeArm 10.207523 0.000000 12.737617
LeftHand -18.728251 -0.000000 12.991814
LeftHandThumb1 -26.253704 0.000000 33.147579
Head -53.881126 7.885834 47.803874
533
root -1.385711 14.692739 -2.232441 43.646837 -18.515863 21.944547
RightUpLeg -167.702264 -59.895762 28.770415
RightLeg 106.536516 -0.000000 -0.000000
RightFoot -14.729280 21.669799 18.394105
RightToeBase 21.488971 -0.000000 -0.000000
LeftUpLeg -28.354010 26.361234 26.751798
LeftLeg 14.882877 -0.000000 -0.000000
LeftFoot -27.570840 5.664170 -18.638485
LeftToeBase 5.929740 -0.000000 -0.000000
Spine -36.395815 13.290222 31.641883
RightShoulder -15.277936 20.083027 -18.537796
RightArm -8.911935 -14.865531 53.419361
RightForeArm -18.528297 -0.000000 33.231634
RightHand 38.696876 -0.000000 -68.595362
RightHandThumb1 -24.326973 -0.000000 -32.862282
LeftShoulder -21.202051 -24.518402 71.906301
LeftArm 74.512452 -43.526227 -17.096391
LeftForeArm 10.195842 -0.000000 12.774067
LeftHand -18.759397 0.000000 13.045407
LeftHandThumb1 -26.253704 0.000000 33.147579
Head -53.927696 7.882393 47.812558
534
root -1.392416 14.690285 -2.243536 43.693515 -18.600533 21.894747
RightUpLeg -167.814013 -59.724939 28.873533
RightLeg 106.537874 -0.000000 -0.000000
RightFoot -14.614170 21.729652 18.475268
RightToeBase 21.385514 -0.000000 -0.000000
LeftUpLeg -28.349268 26.658524 26.662990
LeftLeg 14.815578 -0.000000 -0.000000
LeftFoot -27.453466 5.498705 -18.545607
LeftToeBase 5.892981 -0.000000 -0.000000
Spine -36.383558 13.331695 31.591523
RightShoulder -15.234106 20.158002 -18.528350
RightArm -8.919458 -14.940296 53.490290
RightForeArm -18.442926 0.000000 33.034565
RightHand 38.806947 -0.000000 -68.726827
RightHandThumb1 -24.326973 -0.000000 -32.862282
LeftShoulder -21.172330 -24.452063 71.856062
LeftArm 74.405170 -43.582530 -16.985231
LeftForeArm 10.118329 -0.000000 12.749582
LeftHand -18.600000 -0.000000 13.048802
LeftHandThumb1 -26.253704 0.000000 33.147579
Head -53.977834 7.863105 47.817188
535
root -1.400456 14.685574 -2.253465 43.729502 -18.662205 21.867174
RightUpLeg -167.968293 -59.595390 29.007371
RightLeg 106.563002 -0.000000 -0.000000
RightFoot -14.523604 21.874912 18.623144
RightToeBase 21.474117 -0.000000 -0.000000
LeftUpLeg -28.342415 26.935005 26.569289
LeftLeg 14.713533 -0.000000 -0.000000
LeftFoot -27.310906 5.340751 -18.459075
LeftToeBase 5.833192 -0.000000 -0.000000
Spine -36.391836 13.357039 31.520504
RightShoulder -15.176217 20.195051 -18.480725
RightArm -8.966648 -14.963295 53.527849
RightForeArm -18.386956 -0.000000 32.937301
RightHand 38.867361 -0.000000 -68.777528
RightHandThumb1 -24.326973 -0.000000 -32.862282
LeftShoulder -21.183320 -24.411510 71.841208
LeftArm 74.291623 -43.589904 -16.845452
LeftForeArm 10.110425 -0.000000 12.729377
LeftHand -18.670604 0.000000 13.062701
LeftHandThumb1 -26.253704 0.000000 33.147579
Head -54.036447 7.839212 47.851096
536
root -1.409745 14.679204 -2.263321 43.748995 -18.711437 21.854265
RightUpLeg -168.093395 -59.496679 29.097834
RightLeg 106.595707 -0.000000 -0.000000
RightFoot -14.457361 21.940733 18.654720
RightToeBase 21.403130 -0.000000 -0.000000
LeftUpLeg -28.321831 27.190739 26.480541
LeftLeg 14.583899 -0.000000 -0.000000
LeftFoot -27.204222 5.145301 -18.487984
LeftToeBase 5.872368 -0.000000 -0.000000
Spine -36.401547 13.371525 31.441277
RightShoulder -15.113936 20.241079 -18.424302
RightArm -9.071625 -14.955362 53.557906
RightForeArm -18.354419 0.000000 32.913627
RightHand 38.946092 -0.000000 -68.806432
RightHandThumb1 -24.326973 -0.000000 -32.862282
LeftShoulder -21.210157 -24.378830 71.823371
LeftArm 74.214193 -43.600172 -16.711068
LeftForeArm 10.146116 0.000000 12.647846
LeftHand -18.616137 -0.000000 13.047225
LeftHandThumb1 -26.253704 0.000000 33.147579
Head -54.107857 7.812041 47.889851
537
root -1.418239 14.672021 -2.272727 43.757256 -18.720684 21.848438
RightUpLeg -168.225626 -59.447254 29.211164
RightLeg 106.628583 -0.000000 -0.000000
RightFoot -14.295181 22.050362 18.846399
RightToeBase 21.309349 -0.000000 -0.000000
LeftUpLeg -28.298910 27.350954 26.436109
LeftLeg 14.460935 -0.000000 -0.000000
LeftFoot -27.116284 5.025579 -18.432161
LeftToeBase 5.900149 -0.000000 -0.000000
Spine -36.416982 13.389763 31.372755
RightShoulder -15.063648 20.237055 -18.364771
RightArm -9.204692 -14.874655 53.563152
RightForeArm -18.361643 0.000000 33.011006
RightHand 38.960782 -0.000000 -68.775308
RightHandThumb1 -24.326973 -0.000000 -32.862282
LeftShoulder -21.226606 -24.383861 71.785560
LeftArm 74.029966 -43.616192 -16.447905
LeftForeArm 10.242260 -0.000000 12.581435
LeftHand -18.563344 -0.000000 12.982355
LeftHandThumb1 -26.253704 0.000000 33.147579
Head -54.220800 7.766988 47.909155
538
root -1.426476 14.663411 -2.282177 43.761670 -18.700608 21.851915
RightUpLeg -168.365546 -59.434911 29.332368
RightLeg 106.669387 -0.000000 -0.000000
RightFoot -14.179101 22.149087 19.040160
RightToeBase 21.328059 -0.000000 -0.000000
LeftUpLeg -28.293338 27.476814 26.402588
LeftLeg 14.348749 -0.000000 -0.000000
LeftFoot -27.029835 4.942660 -18.331611
LeftToeBase 5.860587 -0.000000 -0.000000
Spine -36.440157 13.386246 31.325716
RightShoulder -14.970446 20.222336 -18.291292
RightArm -9.418397 -14.728317 53.557356
RightForeArm -18.430717 0.000000 33.247547
RightHand 38.946842 -0.000000 -68.637970
RightHandThumb1 -24.326973 -0.000000 -32.862282
LeftShoulder -21.250476 -24.406085 71.763921
LeftArm 73.762687 -43.619810 -16.125596
LeftForeArm 10.289750 0.000000 12.534565
LeftHand -18.530333 -0.000000 12.844644
LeftHandThumb1 -26.253704 0.000000 33.147579
Head -54.326482 7.734680 47.870215
539
root -1.434932 14.653159 -2.294098 43.770293 -18.669672 21.851912
RightUpLeg -168.476344 -59.422260 29.417468
RightLeg 106.721510 -0.000000 -0.000000
RightFoot -14.149699 22.165730 19.078817
RightToeBase 21.325088 -0.000000 -0.000000
LeftUpLeg -28.301388 27.570997 26.393193
LeftLeg 14.259135 -0.000000 -0.000000
LeftFoot -26.971479 4.893633 -18.247114
LeftToeBase 5.860562 -0.000000 -0.000000
Spine -36.453927 13.391424 31.289025
RightShoulder -14.813121 20.251383 -18.208517
RightArm -9.799155 -14.515479 53.547577
RightForeArm -18.501940 -0.000000 33.631143
RightHand 38.934183 -0.000000 -68.491244
RightHandThumb1 -24.326973 -0.000000 -32.862282
LeftShoulder -21.284264 -24.414542 71.730886
LeftArm 73.528117 -43.667458 -15.887337
LeftForeArm 10.365237 -0.000000 12.540827
LeftHand -18.506046 -0.000000 12.759247
LeftHandThumb1 -26.253704 0.000000 33.147579
Head -54.478770 7.737519 47.805981
540
root -1.442827 14.641600 -2.307449 43.767883 -18.619362 21.851662
RightUpLeg -168.553783 -59.428616 29.467866
RightLeg 106.778406 -0.000000 -0.000000
RightFoot -14.121335 22.116436 19.097123
RightToeBase 21.284984 -0.000000 -0.000000
LeftUpLeg -28.309772 27.635920 26.407148
LeftLeg 14.179681 -0.000000 -0.000000
LeftFoot -26.932297 4.846261 -18.147157
LeftToeBase 5.867182 -0.000000 -0.000000
Spine -36.459216 13.383131 31.268820
RightShoulder -14.677931 20.207062 -18.098270
RightArm -10.109888 -14.276417 53.502486
RightForeArm -18.597566 -0.000000 34.086765
RightHand 38.869052 -0.000000 -68.232383
RightHandThumb1 -24.326973 -0.000000 -32.862282
LeftShoulder -21.307734 -24.400583 71.690713
LeftArm 73.320722 -43.770824 -15.718756
LeftForeArm 10.471461 -0.000000 12.547043
LeftHand -18.455104 -0.000000 12.701397
LeftHandThumb1 -26.253704 0.000000 33.147579
Head -54.636270 7.718484 47.752921
541
root -1.451434 14.629931 -2.321636 43.774792 -18.567880 21.845936
RightUpLeg -168.585526 -59.441200 29.463739
RightLeg 106.855708 -0.000000 -0.000000
RightFoot -14.147661 22.115128 19.145841
RightToeBase 21.353480 -0.000000 -0.000000
LeftUpLeg -28.315516 27.654620 26.451433
LeftLeg 14.108241 -0.000000 -0.000000
LeftFoot -26.897587 4.825016 -18.124036
LeftToeBase 5.835824 -0.000000 -0.000000
Spine -36.461436 13.387719 31.255538
RightShoulder -14.564519 20.180991 -17.985699
RightArm -10.424311 -14.076758 53.446442
RightForeArm -18.685207 -0.000000 34.566197
RightHand 38.716431 -0.000000 -68.114465
RightHandThumb1 -24.326973 -0.000000 -32.862282
LeftShoulder -21.276019 -24.272439 71.579331
LeftArm 72.991620 -44.021763 -15.388760
LeftForeArm 10.372889 0.000000 12.599971
LeftHand -18.479133 0.000000 12.711942
LeftHandThumb1 -26.253704 0.000000 33.147579
Head -54.801258 7.722205 47.693196
542
root -1.461004 14.616720 -2.333647 43.768095 -18.501907 21.814550
RightUpLeg -168.561457 -59.458435 29.436282
RightLeg 106.941087 -0.000000 -0.000000
RightFoot -14.221750 22.033095 19.042696
RightToeBase 21.275448 -0.000000 -0.000000
LeftUpLeg -28.302597 27.696982 26.524046
LeftLeg 14.044814 -0.000000 -0.000000
LeftFoot -26.891959 4.785074 -18.088037
LeftToeBase 5.837413 -0.000000 -0.000000
Spine -36.439130 13.407701 31.280129
RightShoulder -14.523646 20.105742 -17.910881
RightArm -10.641994 -13.793414 53.403178
RightForeArm -18.780646 -0.000000 35.012692
RightHand 38.760541 -0.000000 -67.929288
RightHandThumb1 -24.326973 -0.000000 -32.862282
LeftShoulder -21.302897 -24.201519 71.507775
LeftArm 72.879242 -44.251846 -15.390087
LeftForeArm 10.432096 -0.000000 12.607565
LeftHand -18.428403 -0.000000 12.620055
LeftHandThumb1 -26.253704 0.000000 33.147579
Head -54.982382 7.718630 47.597894
